<svg width="20" height="20" viewBox="0 0 20 20" fill="none" xmlns="http://www.w3.org/2000/svg">
<path d="M10.002 0C4.47564 0 0.00195312 4.47368 0.00195312 10C0.00195312 15.5263 4.47564 20 10.002 20C15.5283 20 20.002 15.5263 20.002 10C20.002 4.47368 15.5283 0 10.002 0ZM10.002 18.9474C5.05458 18.9474 1.05458 14.9474 1.05458 10C1.05458 5.05263 5.05458 1.05263 10.002 1.05263C14.9493 1.05263 18.9493 5.05263 18.9493 10C18.9493 14.9474 14.9493 18.9474 10.002 18.9474ZM15.1335 10C15.1335 10.2895 14.8967 10.5263 14.6072 10.5263H8.71248C8.42301 10.5263 8.18616 10.2895 8.18616 10C8.18616 9.71053 8.42301 9.47368 8.71248 9.47368H14.6072C14.8967 9.47368 15.1335 9.71053 15.1335 10ZM15.1335 13.1579C15.1335 13.4474 14.8967 13.6842 14.6072 13.6842H8.71248C8.42301 13.6842 8.18616 13.4474 8.18616 13.1579C8.18616 12.8684 8.42301 12.6316 8.71248 12.6316H14.6072C14.8967 12.6316 15.1335 12.8684 15.1335 13.1579ZM6.92301 10C6.92301 10.2895 6.68616 10.5263 6.39669 10.5263H5.39669C5.10722 10.5263 4.87037 10.2895 4.87037 10C4.87037 9.71053 5.10722 9.47368 5.39669 9.47368H6.39669C6.68616 9.47368 6.92301 9.71053 6.92301 10ZM6.92301 13.1579C6.92301 13.4474 6.68616 13.6842 6.39669 13.6842H5.39669C5.10722 13.6842 4.87037 13.4474 4.87037 13.1579C4.87037 12.8684 5.10722 12.6316 5.39669 12.6316H6.39669C6.68616 12.6316 6.92301 12.8684 6.92301 13.1579ZM15.1335 6.84211C15.1335 7.13158 14.8967 7.36842 14.6072 7.36842H8.71248C8.42301 7.36842 8.18616 7.13158 8.18616 6.84211C8.18616 6.55263 8.42301 6.31579 8.71248 6.31579H14.6072C14.8967 6.31579 15.1335 6.55263 15.1335 6.84211ZM6.92301 6.84211C6.92301 7.13158 6.68616 7.36842 6.39669 7.36842H5.39669C5.10722 7.36842 4.87037 7.13158 4.87037 6.84211C4.87037 6.55263 5.10722 6.31579 5.39669 6.31579H6.39669C6.68616 6.31579 6.92301 6.55263 6.92301 6.84211Z" fill="#B0C5FB"/>
</svg>
