<svg width="12" height="10" viewBox="0 0 12 10" fill="none" xmlns="http://www.w3.org/2000/svg">
<path d="M6 10C5.93669 10.0001 5.87398 9.98866 5.81549 9.96645C5.757 9.94424 5.70388 9.91166 5.65917 9.87058L1.05721 5.65412C-0.352402 4.36259 -0.352402 2.26098 1.05721 0.969448C2.4109 -0.271728 4.58075 -0.32164 6 0.822804C7.41829 -0.320315 9.58814 -0.27217 10.9428 0.969448C12.3524 2.26098 12.3524 4.36303 10.9428 5.65412L6.34083 9.87058C6.29612 9.91166 6.243 9.94424 6.18451 9.96645C6.12602 9.98866 6.06331 10.0001 6 10ZM3.61417 0.883317C3.26595 0.882757 2.92103 0.945212 2.59922 1.0671C2.2774 1.18898 1.98503 1.36789 1.73887 1.59357C1.24224 2.04944 0.963318 2.66723 0.963318 3.31134C0.963318 3.95545 1.24224 4.57324 1.73887 5.02911L6 8.93329L10.2611 5.02911C10.7578 4.57324 11.0367 3.95545 11.0367 3.31134C11.0367 2.66723 10.7578 2.04944 10.2611 1.59357C9.76357 1.13854 9.0893 0.882982 8.38631 0.882982C7.68332 0.882982 7.00904 1.13854 6.51149 1.59357L6.34083 1.74993C6.2961 1.79099 6.24297 1.82356 6.18449 1.84578C6.12601 1.868 6.06331 1.87944 6 1.87944C5.93669 1.87944 5.87399 1.868 5.81551 1.84578C5.75703 1.82356 5.7039 1.79099 5.65917 1.74993L5.48851 1.59357C5.24255 1.3679 4.95034 1.18898 4.62869 1.0671C4.30703 0.945209 3.96225 0.882753 3.61417 0.883317Z" fill="#B0C5FB"/>
</svg>
