<svg width="10" height="10" viewBox="0 0 10 10" fill="none" xmlns="http://www.w3.org/2000/svg">
<path d="M9.0835 4.41683H5.5835V0.916829C5.5835 0.76212 5.52204 0.613747 5.41264 0.504351C5.30325 0.394954 5.15487 0.333496 5.00016 0.333496C4.84545 0.333496 4.69708 0.394954 4.58768 0.504351C4.47829 0.613747 4.41683 0.76212 4.41683 0.916829V4.41683H0.916829C0.76212 4.41683 0.613747 4.47829 0.504351 4.58768C0.394954 4.69708 0.333496 4.84545 0.333496 5.00016C0.333496 5.15487 0.394954 5.30325 0.504351 5.41264C0.613747 5.52204 0.76212 5.5835 0.916829 5.5835H4.41683V9.0835C4.41683 9.2382 4.47829 9.38658 4.58768 9.49598C4.69708 9.60537 4.84545 9.66683 5.00016 9.66683C5.15487 9.66683 5.30325 9.60537 5.41264 9.49598C5.52204 9.38658 5.5835 9.2382 5.5835 9.0835V5.5835H9.0835C9.2382 5.5835 9.38658 5.52204 9.49598 5.41264C9.60537 5.30325 9.66683 5.15487 9.66683 5.00016C9.66683 4.84545 9.60537 4.69708 9.49598 4.58768C9.38658 4.47829 9.2382 4.41683 9.0835 4.41683Z" fill="#B0C5FB"/>
</svg>
