<svg width="20" height="20" viewBox="0 0 20 20" fill="none" xmlns="http://www.w3.org/2000/svg">
<path d="M18.174 1.82613C17.072 0.724129 16.092 1.04913 16.092 1.04913L7.453 9.68113L6 14.0001L10.317 12.5461L18.951 3.90813C18.951 3.90813 19.275 2.92813 18.174 1.82613ZM10.605 11.6051L10.134 12.0751L8.661 12.5751C8.54687 12.2973 8.37744 12.0455 8.163 11.8351C7.95246 11.6209 7.70074 11.4515 7.423 11.3371L7.923 9.86413L8.394 9.39413C8.394 9.39413 9.17 9.30513 9.931 10.0671C10.693 10.8281 10.605 11.6051 10.605 11.6051ZM16 17.0001H3V4.00013H8L10 2.00013H3C1.9 2.00013 1 2.90013 1 4.00013V17.0001C1 18.1001 1.9 19.0001 3 19.0001H16C17.1 19.0001 18 18.1001 18 17.0001V10.0001L16 12.0001V17.0001Z" fill="#B0C5FB"/>
</svg>
