<svg width="32" height="32" viewBox="0 0 32 32" fill="none" xmlns="http://www.w3.org/2000/svg">
<path d="M16 31C24.2843 31 31 24.2843 31 16C31 7.71573 24.2843 1 16 1C7.71573 1 1 7.71573 1 16C1 24.2843 7.71573 31 16 31Z" fill="#96D7FF"/>
<path d="M2.35013 17C2.35267 14.2944 3.08695 11.6399 4.4752 9.31759C5.86345 6.99529 7.85397 5.09171 10.2359 3.80849C12.6179 2.52527 15.3025 1.9102 18.0056 2.02842C20.7086 2.14665 23.3293 2.99377 25.5901 4.48005C24.0328 3.11055 22.2084 2.07886 20.2322 1.45012C18.256 0.821387 16.1709 0.609271 14.1085 0.827172C12.0461 1.04507 10.0514 1.68825 8.25019 2.7161C6.44899 3.74394 4.88049 5.13411 3.64376 6.79882C2.40702 8.46353 1.52891 10.3666 1.06488 12.3879C0.600856 14.4091 0.560997 16.5046 0.947823 18.542C1.33465 20.5795 2.13975 22.5146 3.31229 24.2251C4.48483 25.9356 5.99933 27.3845 7.76013 28.48C6.07413 27.0782 4.71595 25.3238 3.78124 23.3404C2.84653 21.3569 2.35803 19.1927 2.35013 17Z" fill="#86C3EF"/>
<path d="M16.0002 6.08984C14.0649 6.09249 12.2097 6.86244 10.8412 8.23089C9.4728 9.59933 8.70284 11.4546 8.7002 13.3898V28.4898C8.70076 28.6745 8.75244 28.8554 8.84952 29.0125C8.9466 29.1696 9.08528 29.2967 9.2502 29.3798C11.3409 30.4449 13.6539 31.0001 16.0002 31.0001C18.3465 31.0001 20.6595 30.4449 22.7502 29.3798C22.9151 29.2967 23.0538 29.1696 23.1509 29.0125C23.248 28.8554 23.2996 28.6745 23.3002 28.4898V13.3898C23.2975 11.4546 22.5276 9.59933 21.1592 8.23089C19.7907 6.86244 17.9355 6.09249 16.0002 6.08984Z" fill="#BF9E99"/>
<path d="M16 31C19.7389 31.001 23.3411 29.5944 26.09 27.06C26.1044 26.984 26.1044 26.906 26.09 26.83C25.6479 25.5087 24.8019 24.3596 23.6715 23.545C22.5411 22.7303 21.1834 22.2914 19.79 22.29H12.29C10.8984 22.2935 9.54287 22.7334 8.41445 23.5479C7.28604 24.3623 6.44157 25.5103 6.00002 26.83C5.98567 26.906 5.98567 26.984 6.00002 27.06C8.72603 29.5734 12.2922 30.9785 16 31Z" fill="#FF9797"/>
<path d="M6.51002 27.39C6.95473 26.0703 7.80138 24.9229 8.93121 24.1087C10.061 23.2945 11.4174 22.8544 12.81 22.85H20.32C21.9361 22.8566 23.494 23.4542 24.7 24.53C24.0791 23.8292 23.3172 23.2675 22.4642 22.8814C21.6112 22.4954 20.6863 22.2939 19.75 22.29H12.25C10.8652 22.3018 9.51864 22.7456 8.3982 23.5595C7.27777 24.3734 6.43937 25.5167 6.00002 26.83C5.98567 26.906 5.98567 26.984 6.00002 27.06C6.18002 27.23 6.38002 27.38 6.57002 27.54C6.54501 27.4922 6.5249 27.4419 6.51002 27.39Z" fill="#E47979"/>
<path d="M18.6998 15.8301H13.2998C13.0346 15.8301 12.7802 15.9354 12.5927 16.123C12.4052 16.3105 12.2998 16.5649 12.2998 16.8301V23.3001C12.3007 23.4648 12.3422 23.6267 12.4207 23.7715C12.4992 23.9163 12.6122 24.0395 12.7498 24.1301L15.4498 25.9301C15.6131 26.0376 15.8043 26.0949 15.9998 26.0949C16.1953 26.0949 16.3865 26.0376 16.5498 25.9301L19.2498 24.1301C19.3874 24.0395 19.5004 23.9163 19.5789 23.7715C19.6574 23.6267 19.699 23.4648 19.6998 23.3001V16.8301C19.6998 16.5649 19.5944 16.3105 19.4069 16.123C19.2194 15.9354 18.965 15.8301 18.6998 15.8301Z" fill="#ECC5B4"/>
<path d="M21.5 12.77H10.5C9.70435 12.77 8.94129 13.0861 8.37868 13.6487C7.81607 14.2113 7.5 14.9744 7.5 15.77C7.5 16.5657 7.81607 17.3287 8.37868 17.8913C8.94129 18.4539 9.70435 18.77 10.5 18.77H21.5C22.2956 18.77 23.0587 18.4539 23.6213 17.8913C24.1839 17.3287 24.5 16.5657 24.5 15.77C24.5 14.9744 24.1839 14.2113 23.6213 13.6487C23.0587 13.0861 22.2956 12.77 21.5 12.77Z" fill="#ECC5B4"/>
<path d="M18.4598 9H13.5398C12.6142 9 11.7265 9.3677 11.072 10.0222C10.4175 10.6767 10.0498 11.5644 10.0498 12.49V15.85C10.0498 17.428 10.6767 18.9414 11.7925 20.0573C12.9084 21.1731 14.4218 21.8 15.9998 21.8C17.5778 21.8 19.0912 21.1731 20.2071 20.0573C21.3229 18.9414 21.9498 17.428 21.9498 15.85V12.46C21.9419 11.5396 21.5707 10.6596 20.9171 10.0116C20.2634 9.36354 19.3802 8.99997 18.4598 9Z" fill="#F4DAB7"/>
<path d="M23.1999 12.6598H23.2599C23.1458 11.4961 22.753 10.377 22.1148 9.39715C21.4767 8.41734 20.6119 7.60567 19.5936 7.03082C18.5754 6.45596 17.4336 6.13485 16.265 6.09464C15.0964 6.05443 13.9353 6.29631 12.8799 6.79981C12.8043 7.0551 12.8257 7.32932 12.9399 7.56981C13.6181 8.98201 14.6265 10.21 15.8799 11.1498C17.4045 12.2897 19.2563 12.9069 21.1599 12.9098C21.8472 12.9047 22.5317 12.8208 23.1999 12.6598Z" fill="#D6B5B0"/>
<path d="M19.0002 6.7598C17.8905 6.25675 16.6725 6.03983 15.4574 6.12887C14.2423 6.21791 13.0689 6.61007 12.0445 7.26951C11.02 7.92894 10.1771 8.83463 9.59293 9.90378C9.00873 10.9729 8.7018 12.1714 8.7002 13.3898V13.7798C9.094 13.84 9.49182 13.87 9.8902 13.8698C11.219 13.8683 12.5319 13.5809 13.7397 13.027C14.9476 12.4731 16.022 11.6658 16.8902 10.6598C17.8594 9.53743 18.5787 8.22161 19.0002 6.7998V6.7598Z" fill="#D6B5B0"/>
</svg>
