<svg width="14" height="12" viewBox="0 0 14 12" fill="none" xmlns="http://www.w3.org/2000/svg">
<path d="M7 12C6.92613 12.0001 6.85298 11.9864 6.78474 11.9597C6.7165 11.9331 6.65452 11.894 6.60236 11.8447L1.23341 6.78494C-0.411136 5.2351 -0.411136 2.71317 1.23341 1.16334C2.81271 -0.326074 5.34421 -0.385969 7 0.987364C8.65467 -0.384378 11.1862 -0.326604 12.7666 1.16334C14.4111 2.71317 14.4111 5.23563 12.7666 6.78494L7.39764 11.8447C7.34548 11.894 7.2835 11.9331 7.21526 11.9597C7.14702 11.9864 7.07387 12.0001 7 12ZM4.21653 1.05998C3.81027 1.05931 3.40787 1.13425 3.03242 1.28052C2.65697 1.42678 2.31587 1.64147 2.02868 1.91228C1.44928 2.45933 1.12387 3.20068 1.12387 3.97361C1.12387 4.74653 1.44928 5.48788 2.02868 6.03493L7 10.72L11.9713 6.03493C12.5507 5.48788 12.8761 4.74653 12.8761 3.97361C12.8761 3.20068 12.5507 2.45933 11.9713 1.91228C11.3908 1.36625 10.6042 1.05958 9.78403 1.05958C8.96387 1.05958 8.17722 1.36625 7.59674 1.91228L7.39764 2.09992C7.34545 2.14918 7.28347 2.18827 7.21524 2.21493C7.14701 2.2416 7.07387 2.25533 7 2.25533C6.92613 2.25533 6.85299 2.2416 6.78476 2.21493C6.71653 2.18827 6.65455 2.14918 6.60236 2.09992L6.40326 1.91228C6.11631 1.64148 5.7754 1.42678 5.40013 1.28052C5.02487 1.13425 4.62263 1.0593 4.21653 1.05998Z" fill="#B0C5FB"/>
</svg>
