<svg width="17" height="12" viewBox="0 0 17 12" fill="none" xmlns="http://www.w3.org/2000/svg">
<path d="M8.5 12C8.4103 12.0001 8.32147 11.9864 8.23861 11.9597C8.15575 11.9331 8.08049 11.894 8.01715 11.8447L1.49771 6.78494C-0.499237 5.2351 -0.499237 2.71317 1.49771 1.16334C3.41543 -0.326074 6.48939 -0.385969 8.5 0.987364C10.5092 -0.384378 13.5832 -0.326604 15.5023 1.16334C17.4992 2.71317 17.4992 5.23563 15.5023 6.78494L8.98285 11.8447C8.91951 11.894 8.84425 11.9331 8.76139 11.9597C8.67853 11.9864 8.5897 12.0001 8.5 12ZM5.12008 1.05998C4.62676 1.05931 4.13813 1.13425 3.68222 1.28052C3.22632 1.42678 2.81212 1.64147 2.4634 1.91228C1.75984 2.45933 1.3647 3.20068 1.3647 3.97361C1.3647 4.74653 1.75984 5.48788 2.4634 6.03493L8.5 10.72L14.5366 6.03493C15.2402 5.48788 15.6353 4.74653 15.6353 3.97361C15.6353 3.20068 15.2402 2.45933 14.5366 1.91228C13.8317 1.36625 12.8765 1.05958 11.8806 1.05958C10.8847 1.05958 9.92948 1.36625 9.22461 1.91228L8.98285 2.09992C8.91948 2.14918 8.84421 2.18827 8.76136 2.21493C8.67851 2.2416 8.58969 2.25533 8.5 2.25533C8.41031 2.25533 8.32149 2.2416 8.23864 2.21493C8.15579 2.18827 8.08052 2.14918 8.01715 2.09992L7.77539 1.91228C7.42694 1.64148 7.01299 1.42678 6.55731 1.28052C6.10162 1.13425 5.61319 1.0593 5.12008 1.05998Z" fill="#9D0909"/>
</svg>
