<svg width="20" height="20" viewBox="0 0 20 20" fill="none" xmlns="http://www.w3.org/2000/svg">
<path d="M19.1667 1.81818H16.6667C16.6667 1.33597 16.4911 0.873508 16.1785 0.532533C15.8659 0.191558 15.442 0 15 0H13.3333C12.8913 0 12.4674 0.191558 12.1548 0.532533C11.8423 0.873508 11.6667 1.33597 11.6667 1.81818H0.833333C0.61232 1.81818 0.400358 1.91396 0.244078 2.08445C0.0877975 2.25494 0 2.48617 0 2.72727C0 2.96838 0.0877975 3.19961 0.244078 3.3701C0.400358 3.54058 0.61232 3.63636 0.833333 3.63636H11.6667C11.6667 4.11858 11.8423 4.58104 12.1548 4.92201C12.4674 5.26299 12.8913 5.45455 13.3333 5.45455H15C15.442 5.45455 15.8659 5.26299 16.1785 4.92201C16.4911 4.58104 16.6667 4.11858 16.6667 3.63636H19.1667C19.3877 3.63636 19.5996 3.54058 19.7559 3.3701C19.9122 3.19961 20 2.96838 20 2.72727C20 2.48617 19.9122 2.25494 19.7559 2.08445C19.5996 1.91396 19.3877 1.81818 19.1667 1.81818ZM15 3.63636H13.3333V1.81818H15V3.63636ZM19.1667 9.09091H8.33333C8.33333 8.6087 8.15774 8.14624 7.84518 7.80526C7.53262 7.46429 7.10869 7.27273 6.66667 7.27273H5C4.55797 7.27273 4.13405 7.46429 3.82149 7.80526C3.50893 8.14624 3.33333 8.6087 3.33333 9.09091H0.833333C0.61232 9.09091 0.400358 9.18669 0.244078 9.35718C0.0877975 9.52766 0 9.75889 0 10C0 10.2411 0.0877975 10.4723 0.244078 10.6428C0.400358 10.8133 0.61232 10.9091 0.833333 10.9091H3.33333C3.33333 11.3913 3.50893 11.8538 3.82149 12.1947C4.13405 12.5357 4.55797 12.7273 5 12.7273H6.66667C7.10869 12.7273 7.53262 12.5357 7.84518 12.1947C8.15774 11.8538 8.33333 11.3913 8.33333 10.9091H19.1667C19.3877 10.9091 19.5996 10.8133 19.7559 10.6428C19.9122 10.4723 20 10.2411 20 10C20 9.75889 19.9122 9.52766 19.7559 9.35718C19.5996 9.18669 19.3877 9.09091 19.1667 9.09091ZM6.66667 10.9091H5V9.09091H6.66667V10.9091ZM19.1667 16.3636H13.3333C13.3333 15.8814 13.1577 15.419 12.8452 15.078C12.5326 14.737 12.1087 14.5455 11.6667 14.5455H10C9.55797 14.5455 9.13405 14.737 8.82149 15.078C8.50893 15.419 8.33333 15.8814 8.33333 16.3636H0.833333C0.61232 16.3636 0.400358 16.4594 0.244078 16.6299C0.0877975 16.8004 0 17.0316 0 17.2727C0 17.5138 0.0877975 17.7451 0.244078 17.9156C0.400358 18.086 0.61232 18.1818 0.833333 18.1818H8.33333C8.33333 18.664 8.50893 19.1265 8.82149 19.4675C9.13405 19.8084 9.55797 20 10 20H11.6667C12.1087 20 12.5326 19.8084 12.8452 19.4675C13.1577 19.1265 13.3333 18.664 13.3333 18.1818H19.1667C19.3877 18.1818 19.5996 18.086 19.7559 17.9156C19.9122 17.7451 20 17.5138 20 17.2727C20 17.0316 19.9122 16.8004 19.7559 16.6299C19.5996 16.4594 19.3877 16.3636 19.1667 16.3636ZM11.6667 18.1818H10V16.3636H11.6667V18.1818Z" fill="white"/>
</svg>
