<svg width="20" height="20" viewBox="0 0 20 20" fill="none" xmlns="http://www.w3.org/2000/svg">
<path d="M19.1686 1.81818H16.6686C16.6686 1.33597 16.493 0.873508 16.1805 0.532533C15.8679 0.191558 15.444 0 15.002 0H13.3353C12.8933 0 12.4693 0.191558 12.1568 0.532533C11.8442 0.873508 11.6686 1.33597 11.6686 1.81818H0.835286C0.614273 1.81818 0.402311 1.91396 0.246031 2.08445C0.0897507 2.25494 0.00195313 2.48617 0.00195312 2.72727C0.00195313 2.96838 0.0897507 3.19961 0.246031 3.3701C0.402311 3.54058 0.614273 3.63636 0.835286 3.63636H11.6686C11.6686 4.11858 11.8442 4.58104 12.1568 4.92201C12.4693 5.26299 12.8933 5.45455 13.3353 5.45455H15.002C15.444 5.45455 15.8679 5.26299 16.1805 4.92201C16.493 4.58104 16.6686 4.11858 16.6686 3.63636H19.1686C19.3896 3.63636 19.6016 3.54058 19.7579 3.3701C19.9142 3.19961 20.002 2.96838 20.002 2.72727C20.002 2.48617 19.9142 2.25494 19.7579 2.08445C19.6016 1.91396 19.3896 1.81818 19.1686 1.81818ZM15.002 3.63636H13.3353V1.81818H15.002V3.63636ZM19.1686 9.09091H8.33529C8.33529 8.6087 8.15969 8.14624 7.84713 7.80526C7.53457 7.46429 7.11065 7.27273 6.66862 7.27273H5.00195C4.55993 7.27273 4.136 7.46429 3.82344 7.80526C3.51088 8.14624 3.33529 8.6087 3.33529 9.09091H0.835286C0.614273 9.09091 0.402311 9.18669 0.246031 9.35718C0.0897507 9.52766 0.00195313 9.75889 0.00195312 10C0.00195313 10.2411 0.0897507 10.4723 0.246031 10.6428C0.402311 10.8133 0.614273 10.9091 0.835286 10.9091H3.33529C3.33529 11.3913 3.51088 11.8538 3.82344 12.1947C4.136 12.5357 4.55993 12.7273 5.00195 12.7273H6.66862C7.11065 12.7273 7.53457 12.5357 7.84713 12.1947C8.15969 11.8538 8.33529 11.3913 8.33529 10.9091H19.1686C19.3896 10.9091 19.6016 10.8133 19.7579 10.6428C19.9142 10.4723 20.002 10.2411 20.002 10C20.002 9.75889 19.9142 9.52766 19.7579 9.35718C19.6016 9.18669 19.3896 9.09091 19.1686 9.09091ZM6.66862 10.9091H5.00195V9.09091H6.66862V10.9091ZM19.1686 16.3636H13.3353C13.3353 15.8814 13.1597 15.419 12.8471 15.078C12.5346 14.737 12.1106 14.5455 11.6686 14.5455H10.002C9.55993 14.5455 9.136 14.737 8.82344 15.078C8.51088 15.419 8.33529 15.8814 8.33529 16.3636H0.835286C0.614273 16.3636 0.402311 16.4594 0.246031 16.6299C0.0897507 16.8004 0.00195313 17.0316 0.00195312 17.2727C0.00195313 17.5138 0.0897507 17.7451 0.246031 17.9156C0.402311 18.086 0.614273 18.1818 0.835286 18.1818H8.33529C8.33529 18.664 8.51088 19.1265 8.82344 19.4675C9.136 19.8084 9.55993 20 10.002 20H11.6686C12.1106 20 12.5346 19.8084 12.8471 19.4675C13.1597 19.1265 13.3353 18.664 13.3353 18.1818H19.1686C19.3896 18.1818 19.6016 18.086 19.7579 17.9156C19.9142 17.7451 20.002 17.5138 20.002 17.2727C20.002 17.0316 19.9142 16.8004 19.7579 16.6299C19.6016 16.4594 19.3896 16.3636 19.1686 16.3636ZM11.6686 18.1818H10.002V16.3636H11.6686V18.1818Z" fill="white"/>
</svg>
