<svg width="20" height="20" viewBox="0 0 20 20" fill="none" xmlns="http://www.w3.org/2000/svg">
<path d="M19.4737 0H0.526316C0.236842 0 0 0.346154 0 0.769231V19.2308C0 19.6538 0.236842 20 0.526316 20H19.4737C19.7632 20 20 19.6538 20 19.2308V0.769231C20 0.346154 19.7632 0 19.4737 0ZM3.68421 18.4615H1.05263V15.3846H3.68421V18.4615ZM3.68421 13.8462H1.05263V10.7692H3.68421V13.8462ZM3.68421 9.23077H1.05263V6.15385H3.68421V9.23077ZM3.68421 4.61538H1.05263V1.53846H3.68421V4.61538ZM15.2632 18.4615H4.73684V1.53846H15.2632V18.4615ZM18.9474 18.4615H16.3158V15.3846H18.9474V18.4615ZM18.9474 13.8462H16.3158V10.7692H18.9474V13.8462ZM18.9474 9.23077H16.3158V6.15385H18.9474V9.23077ZM18.9474 4.61538H16.3158V1.53846H18.9474V4.61538Z" fill="#B0C5FB"/>
</svg>
