<svg width="22" height="21" viewBox="0 0 22 21" fill="none" xmlns="http://www.w3.org/2000/svg">
<path d="M19.25 0H1.375C1.01033 0 0.660591 0.138281 0.402728 0.384422C0.144866 0.630564 0 0.964403 0 1.3125V18.375C0 18.7231 0.144866 19.0569 0.402728 19.3031C0.660591 19.5492 1.01033 19.6875 1.375 19.6875H19.25C19.6147 19.6875 19.9644 19.5492 20.2223 19.3031C20.4801 19.0569 20.625 18.7231 20.625 18.375V1.3125C20.625 0.964403 20.4801 0.630564 20.2223 0.384422C19.9644 0.138281 19.6147 0 19.25 0ZM19.25 18.375H1.375V1.3125H19.25V18.375ZM4.8125 10.5H15.8125C15.9948 10.5 16.1697 10.4309 16.2986 10.3078C16.4276 10.1847 16.5 10.0178 16.5 9.84375C16.5 9.6697 16.4276 9.50278 16.2986 9.37971C16.1697 9.25664 15.9948 9.1875 15.8125 9.1875H4.8125C4.63016 9.1875 4.4553 9.25664 4.32636 9.37971C4.19743 9.50278 4.125 9.6697 4.125 9.84375C4.125 10.0178 4.19743 10.1847 4.32636 10.3078C4.4553 10.4309 4.63016 10.5 4.8125 10.5ZM4.8125 6.5625H15.8125C15.9948 6.5625 16.1697 6.49336 16.2986 6.37029C16.4276 6.24722 16.5 6.0803 16.5 5.90625C16.5 5.7322 16.4276 5.56528 16.2986 5.44221C16.1697 5.31914 15.9948 5.25 15.8125 5.25H4.8125C4.63016 5.25 4.4553 5.31914 4.32636 5.44221C4.19743 5.56528 4.125 5.7322 4.125 5.90625C4.125 6.0803 4.19743 6.24722 4.32636 6.37029C4.4553 6.49336 4.63016 6.5625 4.8125 6.5625ZM4.8125 14.4375H15.8125C15.9948 14.4375 16.1697 14.3684 16.2986 14.2453C16.4276 14.1222 16.5 13.9553 16.5 13.7812C16.5 13.6072 16.4276 13.4403 16.2986 13.3172C16.1697 13.1941 15.9948 13.125 15.8125 13.125H4.8125C4.63016 13.125 4.4553 13.1941 4.32636 13.3172C4.19743 13.4403 4.125 13.6072 4.125 13.7812C4.125 13.9553 4.19743 14.1222 4.32636 14.2453C4.4553 14.3684 4.63016 14.4375 4.8125 14.4375Z" fill="#B0C5FB"/>
</svg>
