<svg width="12" height="12" viewBox="0 0 12 12" fill="none" xmlns="http://www.w3.org/2000/svg">
<path d="M10 0H2C1.46957 0 0.960859 0.189642 0.585787 0.527207C0.210714 0.864773 0 1.32261 0 1.8V8.39999C0 8.87738 0.210714 9.33522 0.585787 9.67278C0.960859 10.0103 1.46957 10.2 2 10.2H3.72667L5.52667 11.826C5.58896 11.8816 5.66284 11.9256 5.74406 11.9555C5.82529 11.9853 5.91226 12.0004 6 12C6.1589 12 6.31257 11.9489 6.43333 11.856L8.58 10.2H10C10.5304 10.2 11.0391 10.0103 11.4142 9.67278C11.7893 9.33522 12 8.87738 12 8.39999V1.8C12 1.32261 11.7893 0.864773 11.4142 0.527207C11.0391 0.189642 10.5304 0 10 0ZM10.6667 8.39999C10.6667 8.55912 10.5964 8.71174 10.4714 8.82426C10.3464 8.93678 10.1768 8.99999 10 8.99999H8.33333C8.17444 8.99998 8.02076 9.05105 7.9 9.14399L6.03333 10.584L4.47333 9.17399C4.41104 9.11838 4.33716 9.07439 4.25594 9.04453C4.17471 9.01467 4.08774 8.99954 4 8.99999H2C1.82319 8.99999 1.65362 8.93678 1.5286 8.82426C1.40357 8.71174 1.33333 8.55912 1.33333 8.39999V1.8C1.33333 1.64087 1.40357 1.48826 1.5286 1.37573C1.65362 1.26321 1.82319 1.2 2 1.2H10C10.1768 1.2 10.3464 1.26321 10.4714 1.37573C10.5964 1.48826 10.6667 1.64087 10.6667 1.8V8.39999Z" fill="#B0C5FB"/>
</svg>
