<svg width="10" height="10" viewBox="0 0 10 10" fill="none" xmlns="http://www.w3.org/2000/svg">
<path d="M8.33333 0H1.66667C1.22464 0 0.800716 0.158035 0.488155 0.43934C0.175595 0.720644 0 1.10217 0 1.5V6.99999C0 7.39782 0.175595 7.77935 0.488155 8.06065C0.800716 8.34196 1.22464 8.49999 1.66667 8.49999H3.10556L4.60556 9.85499C4.65747 9.90133 4.71903 9.93799 4.78672 9.96288C4.85441 9.98776 4.92689 10.0004 5 9.99999C5.13241 10 5.26048 9.95744 5.36111 9.87999L7.15 8.49999H8.33333C8.77536 8.49999 9.19928 8.34196 9.51185 8.06065C9.82441 7.77935 10 7.39782 10 6.99999V1.5C10 1.10217 9.82441 0.720644 9.51185 0.43934C9.19928 0.158035 8.77536 0 8.33333 0ZM8.88889 6.99999C8.88889 7.1326 8.83036 7.25978 8.72617 7.35355C8.62198 7.44732 8.48068 7.49999 8.33333 7.49999H6.94444C6.81203 7.49998 6.68397 7.54254 6.58333 7.61999L5.02778 8.81999L3.72778 7.64499C3.67587 7.59865 3.6143 7.56199 3.54661 7.53711C3.47893 7.51223 3.40645 7.49961 3.33333 7.49999H1.66667C1.51932 7.49999 1.37802 7.44732 1.27383 7.35355C1.16964 7.25978 1.11111 7.1326 1.11111 6.99999V1.5C1.11111 1.36739 1.16964 1.24021 1.27383 1.14645C1.37802 1.05268 1.51932 0.999999 1.66667 0.999999H8.33333C8.48068 0.999999 8.62198 1.05268 8.72617 1.14645C8.83036 1.24021 8.88889 1.36739 8.88889 1.5V6.99999Z" fill="#B0C5FB"/>
</svg>
