<svg width="20" height="20" viewBox="0 0 20 20" fill="none" xmlns="http://www.w3.org/2000/svg">
<path d="M9.98296 0C8.04344 0.00368503 6.14684 0.571311 4.52419 1.63374C2.90153 2.69617 1.62285 4.20754 0.8439 5.98377C0.0649456 7.76 -0.180665 9.72442 0.136985 11.6378C0.454636 13.5511 1.32184 15.3308 2.63296 16.76C3.56938 17.775 4.7059 18.5851 5.9709 19.1392C7.23589 19.6933 8.60194 19.9793 9.98296 19.9793C11.364 19.9793 12.73 19.6933 13.995 19.1392C15.26 18.5851 16.3965 17.775 17.333 16.76C18.6441 15.3308 19.5113 13.5511 19.8289 11.6378C20.1466 9.72442 19.901 7.76 19.122 5.98377C18.3431 4.20754 17.0644 2.69617 15.4417 1.63374C13.8191 0.571311 11.9225 0.00368503 9.98296 0ZM9.98296 18C7.91142 17.9969 5.92187 17.1903 4.43296 15.75C4.885 14.6495 5.65399 13.7083 6.64221 13.0459C7.63043 12.3835 8.79327 12.0298 9.98296 12.0298C11.1726 12.0298 12.3355 12.3835 13.3237 13.0459C14.3119 13.7083 15.0809 14.6495 15.533 15.75C14.044 17.1903 12.0545 17.9969 9.98296 18ZM7.98296 8C7.98296 7.60444 8.10026 7.21776 8.32002 6.88886C8.53978 6.55996 8.85214 6.30362 9.21759 6.15224C9.58304 6.00087 9.98518 5.96126 10.3731 6.03843C10.7611 6.1156 11.1175 6.30608 11.3972 6.58579C11.6769 6.86549 11.8674 7.22186 11.9445 7.60982C12.0217 7.99778 11.9821 8.39991 11.8307 8.76537C11.6793 9.13082 11.423 9.44318 11.0941 9.66294C10.7652 9.8827 10.3785 10 9.98296 10C9.45253 10 8.94382 9.78929 8.56875 9.41421C8.19367 9.03914 7.98296 8.53043 7.98296 8ZM16.893 14C15.9995 12.4718 14.6244 11.283 12.983 10.62C13.4921 10.0427 13.8239 9.33066 13.9384 8.56944C14.053 7.80822 13.9454 7.03011 13.6287 6.3285C13.312 5.62688 12.7995 5.03156 12.1529 4.61397C11.5062 4.19637 10.7527 3.97425 9.98296 3.97425C9.21317 3.97425 8.45973 4.19637 7.81305 4.61397C7.16637 5.03156 6.65393 5.62688 6.33721 6.3285C6.02049 7.03011 5.91295 7.80822 6.02749 8.56944C6.14203 9.33066 6.47379 10.0427 6.98296 10.62C5.34156 11.283 3.96643 12.4718 3.07296 14C2.3609 12.7871 1.98468 11.4065 1.98296 10C1.98296 7.87827 2.82581 5.84344 4.32611 4.34315C5.8264 2.84285 7.86123 2 9.98296 2C12.1047 2 14.1395 2.84285 15.6398 4.34315C17.1401 5.84344 17.983 7.87827 17.983 10C17.9812 11.4065 17.605 12.7871 16.893 14Z" fill="#B0C5FB"/>
</svg>
