<svg width="20" height="20" viewBox="0 0 20 20" fill="none" xmlns="http://www.w3.org/2000/svg">
<path d="M10 0C4.47368 0 0 4.47368 0 10C0 15.5263 4.47368 20 10 20C15.5263 20 20 15.5263 20 10C20 4.47368 15.5263 0 10 0ZM10 18.9474C5.05263 18.9474 1.05263 14.9474 1.05263 10C1.05263 5.05263 5.05263 1.05263 10 1.05263C14.9474 1.05263 18.9474 5.05263 18.9474 10C18.9474 14.9474 14.9474 18.9474 10 18.9474ZM15.1316 10C15.1316 10.2895 14.8947 10.5263 14.6053 10.5263H8.71053C8.42105 10.5263 8.18421 10.2895 8.18421 10C8.18421 9.71053 8.42105 9.47368 8.71053 9.47368H14.6053C14.8947 9.47368 15.1316 9.71053 15.1316 10ZM15.1316 13.1579C15.1316 13.4474 14.8947 13.6842 14.6053 13.6842H8.71053C8.42105 13.6842 8.18421 13.4474 8.18421 13.1579C8.18421 12.8684 8.42105 12.6316 8.71053 12.6316H14.6053C14.8947 12.6316 15.1316 12.8684 15.1316 13.1579ZM6.92105 10C6.92105 10.2895 6.68421 10.5263 6.39474 10.5263H5.39474C5.10526 10.5263 4.86842 10.2895 4.86842 10C4.86842 9.71053 5.10526 9.47368 5.39474 9.47368H6.39474C6.68421 9.47368 6.92105 9.71053 6.92105 10ZM6.92105 13.1579C6.92105 13.4474 6.68421 13.6842 6.39474 13.6842H5.39474C5.10526 13.6842 4.86842 13.4474 4.86842 13.1579C4.86842 12.8684 5.10526 12.6316 5.39474 12.6316H6.39474C6.68421 12.6316 6.92105 12.8684 6.92105 13.1579ZM15.1316 6.84211C15.1316 7.13158 14.8947 7.36842 14.6053 7.36842H8.71053C8.42105 7.36842 8.18421 7.13158 8.18421 6.84211C8.18421 6.55263 8.42105 6.31579 8.71053 6.31579H14.6053C14.8947 6.31579 15.1316 6.55263 15.1316 6.84211ZM6.92105 6.84211C6.92105 7.13158 6.68421 7.36842 6.39474 7.36842H5.39474C5.10526 7.36842 4.86842 7.13158 4.86842 6.84211C4.86842 6.55263 5.10526 6.31579 5.39474 6.31579H6.39474C6.68421 6.31579 6.92105 6.55263 6.92105 6.84211Z" fill="#B0C5FB"/>
</svg>
