<svg width="14" height="12" viewBox="0 0 14 12" fill="none" xmlns="http://www.w3.org/2000/svg">
<path d="M11.6667 0H2.33333C1.71449 0 1.121 0.189642 0.683418 0.527207C0.245833 0.864773 0 1.32261 0 1.8V8.39999C0 8.87738 0.245833 9.33522 0.683418 9.67278C1.121 10.0103 1.71449 10.2 2.33333 10.2H4.34778L6.44778 11.826C6.52045 11.8816 6.60664 11.9256 6.70141 11.9555C6.79617 11.9853 6.89764 12.0004 7 12C7.18538 12 7.36467 11.9489 7.50556 11.856L10.01 10.2H11.6667C12.2855 10.2 12.879 10.0103 13.3166 9.67278C13.7542 9.33522 14 8.87738 14 8.39999V1.8C14 1.32261 13.7542 0.864773 13.3166 0.527207C12.879 0.189642 12.2855 0 11.6667 0ZM12.4444 8.39999C12.4444 8.55912 12.3625 8.71174 12.2166 8.82426C12.0708 8.93678 11.8729 8.99999 11.6667 8.99999H9.72222C9.53684 8.99998 9.35756 9.05105 9.21667 9.14399L7.03889 10.584L5.21889 9.17399C5.14621 9.11838 5.06002 9.07439 4.96526 9.04453C4.8705 9.01467 4.76903 8.99954 4.66667 8.99999H2.33333C2.12705 8.99999 1.92922 8.93678 1.78336 8.82426C1.6375 8.71174 1.55556 8.55912 1.55556 8.39999V1.8C1.55556 1.64087 1.6375 1.48826 1.78336 1.37573C1.92922 1.26321 2.12705 1.2 2.33333 1.2H11.6667C11.8729 1.2 12.0708 1.26321 12.2166 1.37573C12.3625 1.48826 12.4444 1.64087 12.4444 1.8V8.39999Z" fill="#B0C5FB"/>
</svg>
